<?xml version="1.0" encoding="UTF-8"?>
<svg version="1.1" viewBox="0 0 1440 1440" width="1280" height="1280" xmlns="http://www.w3.org/2000/svg">
<path transform="translate(574,588)" d="m0 0h7l2 2 1 6v59l-1 24-5 4-30 11-26 10-16 7-16 6-60 25-17 7-9 3v2l5 1 26 11 25 10 13 5 26 11 16 6 28 11 30 12 10 6v86l-5 6-6-2-52-25-34-16-24-12-23-11-28-13-29-13-30-14-32-15-8-6-2-5-1-38v-23l1-10 7-6 16-8 56-26 16-8 29-14 30-14 24-11 16-8 31-15 28-13zm-8 19-22 11-26 12-29 13-22 11-22 10-26 12-15 8-20 9-22 11-23 11-14 7-1 1-1 23v32l2 5 15 8 23 11 26 13 18 8 21 10 23 11 29 14 22 10 8 4 23 11 31 14h3l1-3 1-35v-18l-1-7-21-8-25-10-27-11-15-6-23-9-28-11-32-13-15-6-5-3-1-4 3-6 40-17 36-14 27-11 13-5 60-24 13-5v-64z" fill="#0FEBA7"/>
<path transform="translate(832,588)" d="m0 0h7l18 8 68 33 34 16 13 6 52 25 68 32 10 6 1 2v73l-2 4-17 8-16 8-24 11-15 7-32 16-22 10-32 15-38 19-60 28-11 4-3-3-1-3-1-19v-62l3-6 10-5 25-10 27-11 21-8 27-11 28-11 27-11 12-5 1-1-16-8-19-8-15-6-18-7-43-17-42-17-22-9-5-5-1-10v-61l1-14zm12 19-1 3v57l4 4 19 8 13 5 27 11 22 8 19 8 16 6 24 10 50 20 2 7-1 4-12 5-23 10-21 8-61 24-28 11-42 17-6 3-2 5v34l1 23 6-1 51-24 16-8 25-12 24-11 36-17 28-13 35-17 19-9 4-3 1-17v-22l-1-23-9-4-24-12-28-13-12-6-63-30-28-13-27-13-28-13-18-8z" fill="#0FC9D1"/>
<path transform="translate(731,534)" d="m0 0h18l9 4 8 6 6 10 2 5v11l-5 25-9 51-3 18-12 70-17 96-6 36-7 39-6 33-4 15-5 8-5 5-8 4-4 1h-17l-11-4-9-8-6-12v-24l7-35 3-21 5-24 4-24 9-52 8-44 3-16 3-21 5-25 3-20 5-25 6-34 4-24 6-11 5-6 9-5zm6 14-10 4-6 7-3 10-9 52-5 27-12 68-8 44-8 45-6 34-8 47-7 37-1 17 2 8 5 5 6 3 4 1h9l8-4 4-6 4-18 5-28 3-16 3-20 5-24 3-20 5-26 3-20 5-27 3-20 5-27 3-20 5-25 3-21 5-27 3-20 4-18v-8l-4-7-9-6z" fill="#0FEBA7"/>
<path transform="translate(731,534)" d="m0 0h18l9 4 8 6 6 10 2 5v11l-5 25-9 51-3 18-12 70-8 44h-1v-6l-1-1 1-12-1-4-1-7-2 2-2 4h-2l2 4h-2l-1 4-1-8 4-26 5-27 3-20 5-25 3-21 5-27 3-20 4-18v-8l-4-7-8-5-9-1-10 4-5 6-3 10-9 52-5 27-12 68-7 37h-1l-2-11 3-4-3-6v-6l-4-2-3 2 2-14 4-26 5-25 3-20 5-25 6-34 4-24 6-11 5-6 9-5z" fill="#0FC8D1"/>
<path transform="translate(1170,720)" d="m0 0h13l9 4 8 9 2 5 1 9-3 10-6 8-7 4-2 1h-15l-9-4-7-8-3-9v-10l3-8 5-5 5-4zm3 14-5 3-2 3v10l5 6 2 1h7l5-4 3-8-2-7-3-3-2-1z" fill="#0FC9D1"/>
<path transform="translate(867,995)" d="m0 0h85l8 2 2 3-1 7-3 2-91 1-5-5 1-6z" fill="#0FC9D0"/>
<path transform="translate(502,969)" d="m0 0h11l7 4v2h2l5 8 1 3v8l-3 6-7 7-8 3-9-1-6-4-5-6-2-5v-11l5-8 5-4zm4 17-1 1 1 7 3 1 1-7-1-2z" fill="#0FEBA7"/>
<path transform="translate(898,440)" d="m0 0 9 3 24 14 5 5-1 4-5 5-18 12-10 5-6-2-2-3v-6l4-5 9-6h2v-5l-13-7-2-5z" fill="#0FC8D1"/>
<path transform="translate(574,588)" d="m0 0h7l2 2 1 6v59l-2 3-1-7-1-33v-12l-1-3-5-1-4 1-1 9h-1v-5l-18 9h-2v-5h-2v-2l-7 1v2l-9 2-1-5 38-18z" fill="#0FCACF"/>
<path transform="translate(940,974)" d="m0 0h46l4 2 1 7-3 4-4 1h-44l-4-2v-8z" fill="#0FC9D1"/>
<path transform="translate(258,699)" d="m0 0 5 1 3 12-3 3-10 2 1 5 3 5 13-1 3 7-1 6-5 4h-6l-5-6-1-5-14 2-3-9v-4l10-5h2l-2-7v-5l3-3z" fill="#10ECA7"/>
<path transform="translate(865,889)" d="m0 0 4 3 5 2v4h-2v2l-8 4v2l-26 12-4 1-3-3-1-3v-13l3-1v-2l5-3 5 1 1 2 6-1z" fill="#0FE9A9"/>
<path transform="translate(470,459)" d="m0 0 5 1 5 6v5l-5 4-12 4h-9l-5-6 1-5 3-3z" fill="#0FC9D1"/>
<path transform="translate(484,470)" d="m0 0h8l3 4 4 16-1 5-5 4-6-1-4-5-3-10v-11z" fill="#0FC9D0"/>
<path transform="translate(506,449)" d="m0 0h7l4 4 1 6-5 5-8 3-12 1-5-5 2-6 5-4z" fill="#0FC9D1"/>
<path transform="translate(476,430)" d="m0 0 5 1 4 6 3 9v8l-5 3-7 1-4-5-3-16 4-6z" fill="#0FC9D0"/>
<path transform="translate(275,708)" d="m0 0 7 1 1 6v6l-5 3-9 1-2-6-1-7z" fill="#10ECA7"/>
<path transform="translate(873,998)" d="m0 0 4 2v6l-4 1v-2l-4 1 1-4h2z" fill="#10ECA7"/>
<path transform="translate(687,738)" d="m0 0 1 4-2 11h-1l-2-11z" fill="#0FCBCE"/>
</svg>
